<svg width="1600" height="1600" viewBox="0 0 1200 1200" xmlns="http://www.w3.org/2000/svg"><path d="m377.64 573.24 33.719 16.441-4.922 168h208.68v76.801l-80.402 173.52-270.72-1.078h-75.602v-177.96h75.602l113.76-255.72m0-84v-.004a84.037 84.037 0 0 0-45.78 13.523 84 84 0 0 0-31.02 36.277l-91.68 205.92H188.39a84 84 0 0 0-84 84v177.96c0 22.277 8.852 43.641 24.605 59.395s37.117 24.605 59.395 24.605h75.602l270.48 1.078a84.014 84.014 0 0 0 76.2-48.718l80.397-173.64a83.962 83.962 0 0 0 7.8-35.28V757.2a84.004 84.004 0 0 0-84-84H492.95l2.4-81.122a83.995 83.995 0 0 0-47.282-78l-33.719-16.44v.003a84.004 84.004 0 0 0-36.719-8.402zM920.88 192a90.606 90.606 0 0 1 64.191 26.508 90.602 90.602 0 0 1-.11 128.293l-31.68 31.68-187.56 187.92-219.24-219.24a90.7 90.7 0 0 1-26.863-64.238 90.714 90.714 0 0 1 90.941-90.921 89.756 89.756 0 0 1 64.082 26.641l31.68 31.68 60 59.398 60-59.398 31.68-31.68a90.128 90.128 0 0 1 62.879-26.641m0-84a173.987 173.987 0 0 0-123.48 51.601l-31.68 31.68-31.68-31.68a174.365 174.365 0 0 0-78.266-45.297 174.42 174.42 0 0 0-90.426 0 174.368 174.368 0 0 0-78.27 45.297 174.722 174.722 0 0 0-51.105 123.48 174.723 174.723 0 0 0 51.105 123.48l278.64 278.64 246.96-246.96 31.32-31.68a174.692 174.692 0 0 0 48.043-89.414 174.717 174.717 0 0 0-74.055-179.591 174.735 174.735 0 0 0-97.109-29.559z"/></svg>
